<?xml version="1.0" standalone="no"?>
<!DOCTYPE svg PUBLIC "-//W3C//DTD SVG 20010904//EN"
 "http://www.w3.org/TR/2001/REC-SVG-20010904/DTD/svg10.dtd">
<svg version="1.0" xmlns="http://www.w3.org/2000/svg"
 width="114.000000pt" height="114.000000pt" viewBox="0 0 114.000000 114.000000"
 preserveAspectRatio="xMidYMid meet">
<metadata>
Created by potrace 1.14, written by Peter Selinger 2001-2017
</metadata>
<g transform="translate(0.000000,114.000000) scale(0.100000,-0.100000)"
fill="#000000" stroke="none">
<path d="M382 1125 c-7 -8 -21 -15 -32 -15 -10 0 -22 -5 -25 -10 -5 -8 -11 -7
-21 1 -11 9 -15 8 -20 -5 -3 -9 -11 -13 -18 -9 -6 3 -7 2 -3 -3 5 -5 13 -10
18 -10 5 -1 13 -2 18 -3 12 -1 -7 -61 -20 -61 -5 0 -12 12 -15 26 -4 14 -12
23 -18 21 -14 -6 -37 18 -28 29 4 5 -3 0 -15 -10 -13 -11 -23 -21 -23 -24 0
-3 3 -2 7 1 3 4 18 -3 31 -15 14 -13 22 -17 18 -10 -4 6 -3 12 3 12 5 0 9 -9
8 -20 -1 -14 -6 -18 -19 -14 -10 3 -18 1 -18 -5 0 -6 9 -11 20 -11 11 0 20 -4
20 -8 0 -5 20 -8 45 -8 25 1 45 5 45 9 0 5 4 6 8 3 5 -3 26 3 48 14 64 31 184
69 189 60 3 -5 16 -7 30 -5 14 1 25 -3 25 -9 0 -6 5 -3 11 7 11 18 12 18 32
-1 34 -30 51 -38 45 -20 -4 9 0 15 8 15 9 0 13 -6 9 -15 -5 -13 -3 -13 12 -1
15 12 16 12 10 -5 -6 -16 -3 -18 18 -13 18 3 25 1 21 -8 -3 -8 5 -12 21 -12
14 0 29 -7 34 -14 6 -10 9 -11 9 -1 0 8 16 12 44 12 25 0 48 5 51 10 4 6 11 8
16 5 5 -4 9 -1 9 4 0 6 7 11 15 11 19 0 35 30 25 49 -13 25 -23 55 -22 64 1 4
-27 7 -62 7 -46 0 -67 -4 -77 -16 -9 -11 -22 -14 -43 -9 -17 3 -39 7 -48 8
-10 1 -18 5 -18 9 0 4 -29 8 -65 8 l-65 0 0 -29 c0 -16 -6 -31 -15 -35 -8 -3
-15 -1 -15 4 0 6 4 10 10 10 6 0 5 10 -2 25 -11 24 -14 25 -112 25 -76 -1
-104 -4 -114 -15z m614 -59 c1 -8 -12 -21 -29 -30 -31 -15 -32 -14 -36 7 -1
12 -8 25 -15 29 -6 5 1 8 16 8 15 0 30 5 34 11 8 13 27 -3 30 -25z"/>
<path d="M238 1118 c10 -13 10 -17 0 -20 -8 -3 -9 -6 -1 -11 18 -12 23 21 5
35 -15 11 -16 11 -4 -4z"/>
<path d="M222 939 c-8 -12 -8 -19 -2 -19 7 0 8 -6 0 -19 -5 -11 -6 -22 -2 -25
5 -3 9 -65 9 -138 0 -73 5 -151 11 -173 6 -22 13 -53 16 -70 2 -16 5 -30 6
-30 1 0 3 -14 5 -31 7 -52 53 -121 128 -190 97 -90 184 -131 213 -101 4 4 16
7 26 7 10 0 18 4 18 9 0 5 11 12 24 15 35 9 143 120 151 156 4 16 10 30 13 30
9 0 32 49 32 67 0 7 5 13 12 13 6 0 8 3 5 7 -4 3 3 21 14 40 11 18 17 33 14
33 -4 0 -2 7 5 15 9 10 10 29 5 62 -10 63 -13 316 -3 323 4 3 4 11 -1 18 -9
15 -69 23 -77 10 -4 -5 -10 -5 -17 0 -7 5 -21 6 -31 3 -10 -4 -44 -4 -75 1
-31 4 -153 8 -272 7 -201 0 -216 -2 -227 -20z"/>
<path d="M925 224 c-15 -13 -32 -24 -37 -24 -4 0 -7 -3 -7 -7 3 -19 -2 -27
-10 -15 -6 11 -11 10 -25 -3 -9 -9 -16 -14 -16 -11 0 3 -18 -1 -39 -9 -22 -7
-42 -11 -45 -8 -3 4 -6 1 -6 -6 0 -7 -4 -10 -9 -7 -5 4 -29 -2 -53 -12 -23
-11 -51 -18 -60 -16 -10 1 -18 -2 -18 -7 0 -11 -47 -12 -54 0 -3 4 -16 8 -28
7 -13 -1 -26 2 -29 7 -4 5 -18 10 -33 10 -14 0 -26 3 -26 7 0 5 -11 7 -25 5
-14 -1 -25 2 -25 6 0 5 -5 9 -11 9 -8 0 -8 -5 1 -15 7 -8 18 -15 25 -15 8 0
11 -8 8 -20 -3 -11 -9 -20 -14 -20 -5 0 -6 7 -3 15 4 10 -3 18 -21 25 -40 15
-48 2 -17 -27 15 -14 18 -19 7 -12 -18 13 -19 13 -6 -4 8 -9 16 -15 19 -13 2
3 11 -1 18 -9 8 -8 21 -12 29 -9 8 4 15 1 15 -5 0 -6 8 -11 18 -11 9 0 26 -7
36 -15 14 -10 45 -15 98 -15 66 0 84 4 118 25 22 14 40 22 40 19 0 -4 7 -1 15
6 8 6 19 9 25 5 5 -3 10 -1 10 4 0 6 9 11 20 11 11 0 20 5 20 10 0 6 10 10 23
10 12 0 35 7 51 15 15 8 32 12 37 9 5 -3 12 1 15 10 3 8 11 13 18 10 7 -3 20
3 29 13 14 17 15 21 0 51 -24 49 -44 56 -78 26z m65 -44 c0 -22 -44 -52 -65
-44 -10 4 -15 2 -13 -7 2 -10 -5 -13 -21 -11 -13 2 -21 0 -18 -5 3 -5 -8 -8
-26 -7 -17 1 -33 7 -35 13 -2 6 -8 9 -12 6 -5 -3 -12 -1 -15 5 -4 6 -3 10 2 9
15 -4 63 13 63 22 0 6 10 5 21 -2 15 -8 19 -8 15 0 -5 7 4 14 23 17 17 4 35
12 42 20 14 17 39 7 39 -16z m-340 -124 c0 -2 -7 -6 -15 -10 -8 -3 -15 -1 -15
4 0 6 7 10 15 10 8 0 15 -2 15 -4z"/>
<path d="M163 221 c3 -14 1 -18 -9 -14 -8 3 -14 1 -15 -3 0 -5 -2 -17 -4 -26
-2 -10 1 -18 6 -18 6 0 7 -4 4 -10 -3 -6 1 -7 9 -4 9 3 16 1 16 -5 0 -6 3 -10
8 -9 4 0 15 -2 24 -6 10 -4 23 -6 30 -3 7 3 3 6 -9 6 -13 1 -23 6 -23 11 0 6
-6 10 -14 10 -12 0 -31 28 -24 36 11 10 60 11 71 1 7 -7 19 -13 27 -15 8 -2
-1 12 -20 30 -41 39 -85 50 -77 19z m47 -5 c0 -2 -7 -7 -16 -10 -8 -3 -12 -2
-9 4 6 10 25 14 25 6z"/>
<path d="M295 141 c-5 -26 -10 -29 -24 -21 -13 6 -18 5 -18 -4 0 -18 28 -13
64 10 26 16 29 21 17 32 -11 10 -14 10 -14 0 0 -10 -2 -10 -9 1 -7 10 -11 5
-16 -18z"/>
</g>
</svg>
